<?xml version="1.0" standalone="no"?><!DOCTYPE svg PUBLIC "-//W3C//DTD SVG 1.1//EN" "http://www.w3.org/Graphics/SVG/1.1/DTD/svg11.dtd"><svg t="1600311999048" class="icon" viewBox="0 0 1024 1024" version="1.1" xmlns="http://www.w3.org/2000/svg" p-id="1712" xmlns:xlink="http://www.w3.org/1999/xlink" width="16" height="16"><defs><style type="text/css"></style></defs><path d="M234.666667 302.506667l279.253333 174.592 279.296-174.549334L513.92 128z" fill="#515151" p-id="1713"></path><path d="M356.778667 435.712l147.968 92.458667c0.64 0.426667 1.28 0.725333 1.962666 0.981333l0.512 0.298667c0.938667 0.426667 1.877333 0.682667 2.858667 0.853333l0.256 0.128a14.933333 14.933333 0 0 0 2.389333 0.341333l1.365334 0.042667h1.28a15.445333 15.445333 0 0 0 5.546666-1.450667l0.512-0.128a17.621333 17.621333 0 0 0 2.005334-1.066666l147.84-92.373334L793.173333 512l-279.296 174.506667L234.666667 512l122.112-76.288z" fill="#515151" p-id="1714"></path><path d="M356.778667 645.12l147.968 92.501333c0.64 0.426667 1.28 0.768 1.962666 0.981334l0.512 0.298666c0.938667 0.426667 1.877333 0.725333 2.858667 0.853334l0.256 0.128a14.933333 14.933333 0 0 0 2.389333 0.341333l1.365334 0.042667h1.28a15.445333 15.445333 0 0 0 5.546666-1.450667l0.512-0.128a17.621333 17.621333 0 0 0 2.005334-1.066667l147.84-92.373333 121.941333 76.202667L513.92 896 234.666667 721.493333l122.112-76.373333z" fill="#515151" p-id="1715"></path></svg>